<svg width="125" height="82" viewBox="0 0 125 82" fill="none" xmlns="http://www.w3.org/2000/svg">
<g clip-path="url(#clip0_28_226)">
<path fill-rule="evenodd" clip-rule="evenodd" d="M70.1629 33.5061C70.6495 34.8586 68.5616 34.4736 69.2391 33.4842C69.4956 33.1885 69.9996 33.2676 70.1629 33.5061ZM70.5428 36.1109C71.6883 37.1086 72.4803 37.844 73.9087 38.4888C74.7907 38.8867 78.2408 39.9589 78.0319 38.2335C77.5427 38.0381 73.3501 37.8395 71.9108 35.02C72.256 34.2351 72.8885 33.8834 72.5414 32.8588C71.6877 30.3343 68.1109 32.2911 65.6154 32.959C56.3328 35.4436 47.4674 37.0044 37.8724 37.6196C36.6703 37.6968 32.578 37.5611 31.8529 38.2644C31.3534 38.7485 30.9831 39.7783 30.9735 40.4642C30.9548 41.7396 31.7121 41.7692 32.7522 41.9787C41.8464 43.8076 52.434 42.4647 61.1683 39.6247C62.7747 39.102 64.3767 38.5749 65.9574 37.9867C67.254 37.5046 69.3503 36.3918 70.5428 36.1115V36.1109Z" fill="black"/>
<path fill-rule="evenodd" clip-rule="evenodd" d="M37.4906 21.4182C39.027 22.8748 55.3686 31.5525 57.3357 31.9254C58.2402 31.424 59.0386 30.5272 59.7155 29.7712C62.7233 29.8619 63.757 33.5228 66.9892 31.2838C65.6965 29.7809 47.7194 19.6831 43.8991 17.9873C42.3871 17.3162 40.9503 16.2375 39.4429 17.0873C37.8274 17.9976 37.3556 19.6503 37.4906 21.4175V21.4182Z" fill="black"/>
<path fill-rule="evenodd" clip-rule="evenodd" d="M84.7586 19.255C90.4721 17.5168 92.8558 26.404 87.1673 27.9018C81.4859 29.3977 79.0579 20.9894 84.7586 19.255ZM85.9433 17.5611C78.766 18.9863 80.6585 23.213 79.9765 24.9885C79.5535 26.0903 77.7863 27.9038 76.8799 28.6977C75.0838 30.2713 74.1691 30.1113 72.319 30.9264C72.632 31.404 72.8577 31.3513 73.2029 31.8187C73.604 32.3619 73.4356 32.5033 73.6496 33.013C76.3772 30.3279 77.7008 29.3617 81.4589 28.4187C83.2762 27.9623 83.9479 30.308 87.5871 29.2762C91.7559 28.094 93.3238 22.9031 90.4329 19.6368C89.2597 18.3113 88.5635 18.4547 87.391 17.6749C86.9487 15.081 89.3626 14.7416 88.8644 13.4264C87.8815 12.977 87.3093 13.8995 86.8118 14.7243C86.0057 16.0601 86.3033 16.3217 85.9427 17.5605L85.9433 17.5611Z" fill="black"/>
<path fill-rule="evenodd" clip-rule="evenodd" d="M91.9686 41.9119C90.5987 47.3381 81.6215 45.4269 83.298 39.3765C83.9318 37.0899 86.5308 35.612 88.8926 36.3282C91.2506 37.0436 92.5864 39.4639 91.9686 41.9119ZM72.9502 35.702C77.0464 36.5859 78.5075 37.2764 81.572 40.1479C82.0856 42.2269 81.6555 43.0831 83.4433 44.8837C87.8879 49.3611 95.8237 44.2602 93.0196 38.2175C91.3991 34.7249 87.074 33.5267 83.9762 35.9804C82.1929 37.3934 77.5934 36.4214 75.7106 35.326C74.9976 34.9113 74.3092 34.1689 73.6863 33.8552L72.9502 35.702Z" fill="black"/>
<path fill-rule="evenodd" clip-rule="evenodd" d="M65.7254 3.92455L61.3592 4.02226L64.7502 6.63219L63.5211 10.7933L67.0772 8.36464L70.6392 10.8608L69.3985 6.70419L72.8853 4.10647L68.6271 4.01326C67.8789 2.86965 67.8917 0.975846 67.0785 1.52588e-05L65.7247 3.92455H65.7254Z" fill="black"/>
<path fill-rule="evenodd" clip-rule="evenodd" d="M54.8524 6.95554L52.4899 7.00697L54.3574 8.53628L53.6387 10.8248L55.6283 9.5089L57.6519 10.8454L57.0252 8.49128L58.9151 7.09697L56.5983 6.97161L55.7112 4.70367L54.8524 6.95554Z" fill="black"/>
<path fill-rule="evenodd" clip-rule="evenodd" d="M76.7243 6.94655L74.2899 7.01919L76.1445 8.45336L75.5248 10.7168L77.5189 9.48576C78.1965 9.92354 78.8226 10.5741 79.4821 10.7489L78.8611 8.562L80.726 7.10276L78.4009 6.97419L77.562 4.74161L76.7243 6.94719V6.94655Z" fill="black"/>
<path d="M8.97483 68.7607C6.24533 68.7607 4.14067 68.0677 2.66086 66.6811C1.18104 65.2945 0.441132 63.078 0.441132 60.0316C0.441132 54.212 3.27155 51.3025 8.93176 51.3025C10.3036 51.3025 11.5777 51.4683 12.7547 51.8007C13.9318 52.133 14.8086 52.5014 15.3865 52.9057V58.321H10.1879V56.7615C10.1879 56.2131 10.0651 55.8088 9.81952 55.5484C9.57395 55.2887 9.20561 55.1589 8.71512 55.1589C8.22399 55.1589 7.85564 55.2887 7.61072 55.5484C7.36516 55.8081 7.24237 56.2125 7.24237 56.7615V63.303C7.24237 63.8513 7.36516 64.2557 7.61072 64.516C7.85629 64.7757 8.22399 64.9056 8.71512 64.9056C9.20625 64.9056 9.57395 64.7757 9.81952 64.516C10.0651 64.2563 10.1879 63.852 10.1879 63.303V61.5487H15.3865V67.1587C14.7945 67.5631 13.917 67.9314 12.7547 68.2631C11.5925 68.5955 10.3325 68.7613 8.97483 68.7613V68.7607Z" fill="black"/>
<path d="M20.0786 68.4579V64.9056H21.1612V55.1582H20.0786V51.6059H29.2191V55.1582H27.2263V64.9056H29.1754V62.9128H33.4857V68.4579H20.0786Z" fill="black"/>
<path d="M53.9903 64.9056H54.8562V68.4579H46.3656V64.9056H47.6654L47.3189 63.1725H44.3728L44.0263 64.9056H45.3261V68.4579H37.9187V64.9056H38.7852L42.4456 51.6065H50.33L53.9903 64.9056ZM44.8498 60.8769H46.8426L45.9548 56.5667H45.7382L44.8498 60.8769Z" fill="black"/>
<path d="M66.1336 68.7607C64.747 68.7607 63.4369 68.6411 62.202 68.4033C60.9671 68.1648 60.0182 67.8941 59.3535 67.5907V63.3023H64.1189C64.1189 63.7498 64.2198 64.075 64.4223 64.2769C64.6242 64.4787 64.9925 64.5803 65.5274 64.5803C65.9748 64.5803 66.2962 64.5115 66.491 64.3746C66.6858 64.2377 66.7835 64.032 66.7835 63.7575C66.7835 63.5267 66.6896 63.3281 66.5019 63.1616C66.3142 62.9957 65.9896 62.826 65.5274 62.6524L63.6644 62.0025C62.0612 61.3963 60.9098 60.6815 60.2092 59.858C59.5091 59.0352 59.1588 57.9231 59.1588 56.5223C59.1588 54.8181 59.7187 53.5222 60.8372 52.6344C61.9564 51.746 63.8226 51.3025 66.4363 51.3025C67.6924 51.3025 68.8733 51.4291 69.9777 51.6817C71.0821 51.9344 71.9738 52.2706 72.6526 52.6891V56.566H68.3205C68.3205 55.8441 67.8731 55.4828 66.9776 55.4828C66.5443 55.4828 66.2377 55.5368 66.0571 55.6455C65.8764 55.7535 65.7864 55.945 65.7864 56.2195C65.7864 56.4651 65.8912 56.6599 66.1008 56.8045C66.3103 56.9492 66.653 57.1002 67.13 57.259L69.0141 57.9089C70.5447 58.429 71.6601 59.104 72.3608 59.9339C73.0608 60.7644 73.4112 61.8508 73.4112 63.1937C73.4112 65.0277 72.7934 66.4137 71.5591 67.3522C70.3242 68.2908 68.5159 68.7601 66.1336 68.7601V68.7607Z" fill="black"/>
<path d="M84.6023 68.7607C83.2157 68.7607 81.9056 68.6411 80.6707 68.4033C79.4358 68.1648 78.487 67.8941 77.8223 67.5907V63.3023H82.5877C82.5877 63.7498 82.6886 64.075 82.8911 64.2769C83.0929 64.4787 83.4613 64.5803 83.9961 64.5803C84.4435 64.5803 84.765 64.5115 84.9597 64.3746C85.1545 64.2377 85.2522 64.032 85.2522 63.7575C85.2522 63.5267 85.1584 63.3281 84.9707 63.1616C84.7829 62.9957 84.4583 62.826 83.9961 62.6524L82.1332 62.0025C80.5299 61.3963 79.3786 60.6815 78.6779 59.858C77.9779 59.0352 77.6275 57.9231 77.6275 56.5223C77.6275 54.8181 78.1874 53.5222 79.306 52.6344C80.4251 51.746 82.2913 51.3025 84.9051 51.3025C86.1612 51.3025 87.3421 51.4291 88.4465 51.6817C89.5509 51.9344 90.4425 52.2706 91.1213 52.6891V56.566H86.7893C86.7893 55.8441 86.3418 55.4828 85.4464 55.4828C85.0131 55.4828 84.7065 55.5368 84.5258 55.6455C84.3452 55.7535 84.2552 55.945 84.2552 56.2195C84.2552 56.4651 84.36 56.6599 84.5695 56.8045C84.7791 56.9492 85.1217 57.1002 85.5987 57.259L87.4829 57.9089C89.0135 58.429 90.1288 59.104 90.8295 59.9339C91.5295 60.7644 91.8799 61.8508 91.8799 63.1937C91.8799 65.0277 91.2621 66.4137 90.0279 67.3522C88.793 68.2908 86.9847 68.7601 84.6023 68.7601V68.7607Z" fill="black"/>
<path d="M96.3553 68.4579V64.9056H97.4385V55.1582H96.3553V51.6059H104.586V55.1582H103.504V64.9056H104.586V68.4579H96.3553Z" fill="black"/>
<path d="M117.726 68.7607C114.996 68.7607 112.892 68.0677 111.412 66.6811C109.932 65.2945 109.192 63.078 109.192 60.0316C109.192 54.212 112.023 51.3025 117.683 51.3025C119.055 51.3025 120.329 51.4683 121.506 51.8007C122.683 52.133 123.56 52.5014 124.138 52.9057V58.321H118.939V56.7615C118.939 56.2131 118.816 55.8088 118.571 55.5484C118.325 55.2887 117.957 55.1589 117.466 55.1589C116.975 55.1589 116.607 55.2887 116.362 55.5484C116.116 55.8081 115.994 56.2125 115.994 56.7615V63.303C115.994 63.8513 116.116 64.2557 116.362 64.516C116.607 64.7757 116.975 64.9056 117.466 64.9056C117.957 64.9056 118.325 64.7757 118.571 64.516C118.816 64.2563 118.939 63.852 118.939 63.303V61.5487H124.138V67.1587C123.546 67.5631 122.668 67.9314 121.506 68.2631C120.344 68.5955 119.084 68.7613 117.726 68.7613V68.7607Z" fill="black"/>
<path d="M32.2861 80.1615C32.2861 81.3867 31.2852 82 29.2789 82C28.9305 82 28.3892 81.9903 27.6532 81.9717C27.6924 81.0415 27.713 79.9924 27.713 78.8256C27.713 77.7045 27.6924 76.7473 27.6532 75.956H28.4021C28.5422 75.956 28.7807 75.9528 29.115 75.9432C29.4493 75.9335 29.7109 75.929 29.8986 75.929C31.2627 75.929 31.9454 76.3719 31.9454 77.2597C31.9454 77.9424 31.5951 78.3949 30.8969 78.6174V78.6868C31.2691 78.7453 31.5938 78.8906 31.8715 79.1239C32.1473 79.356 32.2861 79.7025 32.2861 80.1615ZM31.039 80.2123C31.039 79.599 30.5029 79.293 29.4274 79.293C29.2146 79.293 29.0314 79.3007 28.8771 79.3148C28.8771 79.9596 28.8913 80.553 28.9196 81.0936C29.0237 81.1187 29.1812 81.1315 29.3895 81.1315C29.9603 81.1315 30.3769 81.0621 30.6417 80.9252C30.9066 80.7882 31.039 80.5517 31.039 80.2123ZM30.7015 77.6242C30.7015 77.0739 30.3576 76.7981 29.6672 76.7981C29.3503 76.7981 29.0681 76.8206 28.8218 76.8676C28.8566 77.1781 28.8726 77.7129 28.8726 78.4695C28.9909 78.4759 29.1143 78.4792 29.2429 78.4792C30.2155 78.4792 30.7015 78.1937 30.7015 77.6242Z" fill="black"/>
<path d="M40.7247 81.9717H39.2474C39.2474 81.7679 39.1073 81.1926 38.8264 80.2431H36.6928C36.4022 81.1765 36.2576 81.7525 36.2576 81.9717H34.8671C34.8671 81.8521 35.2265 80.8667 35.9458 79.0153C36.6652 77.1639 37.0245 76.145 37.0245 75.956H38.7717C38.7717 76.1321 39.0964 77.1369 39.7476 78.9709C40.4007 80.8049 40.7253 81.8046 40.7253 81.9717H40.7247ZM38.5911 79.3618C38.0646 77.772 37.801 76.9125 37.801 76.7833H37.7271C37.7271 76.9029 37.4546 77.7624 36.9088 79.3618H38.5917H38.5911Z" fill="black"/>
<path d="M48.4831 81.9717H47.1158C46.7577 80.8821 46.4833 80.209 46.293 79.9532C46.102 79.6973 45.7948 79.5701 45.3692 79.5701C45.1911 79.5701 45.0208 79.5713 44.8569 79.5733C44.8569 80.3646 44.871 81.1643 44.898 81.9717H43.6143C43.6535 81.0415 43.674 79.9924 43.674 78.8256C43.674 77.7045 43.6535 76.7473 43.6143 75.956H44.414C44.5052 75.956 44.6994 75.9528 44.9925 75.9432C45.2876 75.9335 45.5588 75.929 45.8096 75.929C47.2225 75.929 47.929 76.4131 47.929 77.3799C47.929 78.1462 47.5253 78.681 46.7198 78.9819V79.0513C47.0303 79.1381 47.3035 79.3811 47.5369 79.7796C47.7721 80.1782 48.0871 80.9085 48.4844 81.9717H48.4831ZM46.75 77.7219C46.75 77.1086 46.356 76.8026 45.5672 76.8026C45.2786 76.8026 45.0214 76.8232 44.8009 76.8676C44.8337 77.3439 44.8517 77.9668 44.8517 78.7331C45.0201 78.7395 45.1635 78.7427 45.2805 78.7427C46.2615 78.7427 46.75 78.402 46.75 77.7225V77.7219Z" fill="black"/>
<path d="M56.0557 80.1615C56.0557 81.3867 55.0548 82 53.0485 82C52.7001 82 52.1588 81.9903 51.4228 81.9717C51.462 81.0415 51.4826 79.9924 51.4826 78.8256C51.4826 77.7045 51.462 76.7473 51.4228 75.956H52.1717C52.3118 75.956 52.5503 75.9528 52.8846 75.9432C53.2189 75.9335 53.4805 75.929 53.6682 75.929C55.0323 75.929 55.715 76.3719 55.715 77.2597C55.715 77.9424 55.3647 78.3949 54.6666 78.6174V78.6868C55.0388 78.7453 55.3634 78.8906 55.6411 79.1239C55.9169 79.356 56.0557 79.7025 56.0557 80.1615ZM54.8086 80.2123C54.8086 79.599 54.2725 79.293 53.197 79.293C52.9842 79.293 52.801 79.3007 52.6468 79.3148C52.6468 79.9596 52.6609 80.553 52.6892 81.0936C52.7933 81.1187 52.9508 81.1315 53.1591 81.1315C53.7299 81.1315 54.1465 81.0621 54.4114 80.9252C54.6762 80.7882 54.8086 80.5517 54.8086 80.2123ZM54.4711 77.6242C54.4711 77.0739 54.1272 76.7981 53.4368 76.7981C53.1199 76.7981 52.8377 76.8206 52.5915 76.8676C52.6262 77.1781 52.6423 77.7129 52.6423 78.4695C52.7605 78.4759 52.884 78.4792 53.0125 78.4792C53.9851 78.4792 54.4711 78.1937 54.4711 77.6242Z" fill="black"/>
<path d="M63.2208 80.9541L63.1829 81.9711H59.252C59.2912 81.0409 59.3117 79.9918 59.3117 78.825C59.3117 77.7039 59.2912 76.7467 59.252 75.9554H63.0036L62.9528 76.9678C62.029 76.919 61.1901 76.8939 60.4393 76.8939C60.4689 77.3227 60.4849 77.8273 60.4849 78.4091C61.1284 78.4091 61.8175 78.3917 62.551 78.3583V79.3232C61.8304 79.293 61.1413 79.2776 60.4849 79.2776C60.4849 79.9024 60.4978 80.4887 60.5228 81.0325C61.3669 81.0325 62.2656 81.0074 63.2208 80.9534V80.9541Z" fill="black"/>
<path d="M71.6575 81.9717H70.1802C70.1802 81.7679 70.0401 81.1926 69.7592 80.2431H67.6256C67.335 81.1765 67.1904 81.7525 67.1904 81.9717H65.7999C65.7999 81.8521 66.1593 80.8667 66.8786 79.0153C67.598 77.1639 67.9573 76.145 67.9573 75.956H69.7045C69.7045 76.1321 70.0292 77.1369 70.6804 78.9709C71.3335 80.8049 71.6581 81.8046 71.6581 81.9717H71.6575ZM69.5239 79.3618C68.9974 77.772 68.7338 76.9125 68.7338 76.7833H68.6599C68.6599 76.9029 68.3874 77.7624 67.8416 79.3618H69.5245H69.5239Z" fill="black"/>
<path d="M79.4165 81.9717H78.0492C77.6912 80.8821 77.4167 80.209 77.2264 79.9532C77.0355 79.6973 76.7282 79.5701 76.3026 79.5701C76.1245 79.5701 75.9542 79.5713 75.7903 79.5733C75.7903 80.3646 75.8044 81.1643 75.8314 81.9717H74.5477C74.5869 81.0415 74.6074 79.9924 74.6074 78.8256C74.6074 77.7045 74.5869 76.7473 74.5477 75.956H75.3474C75.4386 75.956 75.6328 75.9528 75.9259 75.9432C76.221 75.9335 76.4923 75.929 76.743 75.929C78.1559 75.929 78.8624 76.4131 78.8624 77.3799C78.8624 78.1462 78.4587 78.681 77.6532 78.9819V79.0513C77.9637 79.1381 78.2369 79.3811 78.4703 79.7796C78.7055 80.1782 79.0205 80.9085 79.4178 81.9717H79.4165ZM77.6834 77.7219C77.6834 77.1086 77.2894 76.8026 76.5006 76.8026C76.212 76.8026 75.9548 76.8232 75.7343 76.8676C75.7671 77.3439 75.7851 77.9668 75.7851 78.7331C75.9536 78.7395 76.0969 78.7427 76.2139 78.7427C77.1949 78.7427 77.6834 78.402 77.6834 77.7225V77.7219Z" fill="black"/>
<path d="M83.6638 81.9717H82.3563C82.3955 81.0158 82.416 79.9673 82.416 78.8256C82.416 77.7013 82.3955 76.7441 82.3563 75.956H83.6638C83.6246 76.7332 83.604 77.6891 83.604 78.8256C83.604 79.986 83.6246 81.0351 83.6638 81.9717Z" fill="black"/>
<path d="M92.4109 81.9717H90.9337C90.9337 81.7679 90.7935 81.1926 90.5126 80.2431H88.379C88.0884 81.1765 87.9438 81.7525 87.9438 81.9717H86.5533C86.5533 81.8521 86.9127 80.8667 87.632 79.0153C88.3514 77.1639 88.7107 76.145 88.7107 75.956H90.458C90.458 76.1321 90.7826 77.1369 91.4338 78.9709C92.0869 80.8049 92.4115 81.8046 92.4115 81.9717H92.4109ZM90.2773 79.3618C89.7508 77.772 89.4873 76.9125 89.4873 76.7833H89.4133C89.4133 76.9029 89.1408 77.7624 88.595 79.3618H90.278H90.2773Z" fill="black"/>
</g>
<defs>
<clipPath id="clip0_28_226">
<rect width="123.697" height="82" fill="white" transform="translate(0.440491)"/>
</clipPath>
</defs>
</svg>
